<svg version="1" xmlns="http://www.w3.org/2000/svg" width="682.667" height="682.667" viewBox="0 0 512.000000 512.000000"><path d="M0 256v256h512V0H0v256zm456.5-46.4c7.1 2.5 12 8.1 14.6 16.7 8.1 26.5-14.1 56.9-51.4 70.2-16.4 5.9-24.3 7-49.7 7-29.4-.1-43-2.2-112-18-52.4-12-67.1-14.5-93.5-16-18.9-1.1-45.5 2.2-61.7 7.5-6 2.1-21.2 9.2-30.9 14.6-11 6.1-25.9 1.2-31-10.1-3.9-8.4-1.3-16.1 7.3-21.8 12.8-8.5 30.6-16.1 48.3-20.6 18.6-4.7 26.7-5.5 55-5.6 37.5 0 49.6 1.8 115 17 63.3 14.7 71.2 15.9 100 16 23.8 0 28.1-.8 42.1-7.5 9.2-4.4 17.3-11.2 21.1-17.7 2.5-4.3 2.5-4.7 1.3-9.8-4.1-17.1 8.3-27.7 25.5-21.9z"/><path d="M444.5 223.1c-.4.6-.2 3 .5 5.5 5.5 19.6-17.5 42.6-50 50-15.7 3.5-39.2 3.3-65.5-.6-17.1-2.6-23.5-3.9-69-14.5-55.6-12.9-70.9-15.4-101.1-16.2-37.8-1.1-63.5 3.7-89.9 16.8-17.7 8.7-19.2 10.4-13 14.5 3.9 2.5 6.4 2 15.1-3 23.6-13.7 49.8-19.9 84.4-19.9 29.7 0 45.6 2.4 105.8 16.2 67.9 15.6 80.2 17.6 109.2 17.5 18.3 0 22.9-.3 30.7-2.1 26.8-6.3 46.3-19.9 54.6-38.1 2.5-5.6 2.9-16 .8-21-2.1-4.9-10.6-8.4-12.6-5.1z"/></svg>